<svg version="1.1" xmlns="http://www.w3.org/2000/svg" xmlns:xlink="http://www.w3.org/1999/xlink" width="1200" height="800"  xml:space="preserve" id="canvas2">

    <g id="canvas2-group" transform="translate(450.59, 321.38)" >
        <path id="canvas2-body" stroke="none" fill="rgb(54, 69, 66)" d="M 478.92,-0 L 209.53,-0 C 209.53,-0 218.08,77.9 141.11,121.18 141.11,144.99 145.39,190.43 81.25,233.71 109.04,261.84 106.9,311.62 106.9,311.62 L -102.63,311.62 C -102.63,311.62 -109.04,270.5 -81.25,233.71 -151.8,160.14 -127.88,149.54 -136.84,121.18 -213.81,73.58 -200.98,-0 -200.98,-0 L -81.25,-0 -55.59,-21.64 C -145.39,-77.9 -111.18,-229.38 4.28,-229.38 119.73,-229.38 286.5,-229.38 286.5,-229.38 448.99,-229.38 478.92,-0 478.92,-0 Z M 478.92,-0" />
        <path id="canvas2-bezier" stroke="none" fill="rgb(255, 208, 0)" d="M -0,-0 L 517.41,-0 C 517.41,-0 475.83,-229.38 309.52,-229.38 143.21,-229.38 -0,-229.38 -0,-229.38 L -0,-0 Z M -0,-0" />
        <path id="canvas2-perutKiri" stroke="none" fill="rgb(255, 255, 255)" d="M -0,-0 C -0,-0 -85.52,-4.33 -85.52,86.56 -85.52,177.45 -0,181.78 -0,181.78 L -0,-0 Z M -0,-0" />
        <path id="canvas2-perutKanan" stroke="none" fill="rgb(213, 224, 228)" d="M -0,-0 C -0,-0 85.52,-4.33 85.52,86.56 85.52,177.45 -0,181.78 -0,181.78 L -0,-0 Z M -0,-0" />
        <path id="canvas2-shadowParuhB" stroke="none" fill="rgb(217, 104, 0)" fill-opacity="0.44" d="M 111.18,-116.86 L 273.67,-116.86 C 273.67,-116.86 363.47,-125.51 363.47,0 L 17.1,0 C 17.1,0 111.18,-15.15 111.18,-116.86 Z M 111.18,-116.86" />
        <path id="canvas2-shadowParuh" stroke="none" fill="rgb(217, 104, 0)" fill-opacity="0.44" d="M 162.49,-116.86 C 162.49,-99.54 162.49,0 162.49,0 L -0,0 C -0,0 -0,-23.62 -0,-55.7 -0,-122.58 -0,-226.22 -0,-229.31 1.63,-229.36 3.27,-229.38 4.92,-229.38 34.65,-229.38 67.33,-229.38 100.16,-229.38 155.25,-202.67 162.49,-128.98 162.49,-116.86 Z M 162.49,-116.86" />
        <path id="canvas2-whiteFace" stroke="rgb(255, 255, 255)" stroke-width="3" stroke-miterlimit="10" fill="rgb(255, 255, 255)" d="M 0.41,-229.34 C 0.41,-229.34 110.91,-218.88 110.91,-116.88 105.91,-0.88 0.41,-0.38 0.41,-0.38 L 0.41,-229.34 Z M 0.41,-229.34" />
        <ellipse id="canvas2-mataLuar" stroke="none" fill="rgb(255, 255, 255)" cx="4.41" cy="-116.88" rx="60" ry="60.5" />
        <ellipse id="canvas2-mataTengah" stroke="none" fill="rgb(60, 155, 227)" cx="3.91" cy="-116.13" rx="38.5" ry="37.75" />
        <ellipse id="canvas2-retina" stroke="none" fill="rgb(54, 69, 66)" cx="4.41" cy="-115.63" rx="17" ry="16.25" />
    </g>
    <rect id="canvas2-rectangle" stroke="none" fill="rgb(142, 68, 0)" x="219" y="548" width="778" height="34" />
</svg>
